# xmcd
#
# Track frame offsets:
#  150
#  14572
#  36551
#  48980
#  64899
#  89326
#  101370
#  116581
#  135419
#  155611
#  170335
#  182756
#
# Disc length: 2614 seconds
#
# Revision: 0
# Processed by: cddbd v1.5.2PL0 Copyright (c) Steve Scherf et al.
# Submitted via: Collectorz.com_Music_Collector 6.10
#
DISCID=9f0a340c
DTITLE=Nelsen Adelard - Jack of All Trades
DYEAR=2004
DGENRE=Blues
TTITLE0=Boogie Woogie  Blue
TTITLE1=Tell The Truth
TTITLE2=In Walks G
TTITLE3=Back to Hermosa
TTITLE4=Too Bad
TTITLE5=El Harpo
TTITLE6=Guitar Blues
TTITLE7=Stay With Me (Just For Tonight)
TTITLE8=I'm Here To Stay
TTITLE9=RC Cola (And A Moonpie)
TTITLE10=Nelsen's Jump
TTITLE11=God Bless The Child
EXTD=
EXTT0=
EXTT1=
EXTT2=
EXTT3=
EXTT4=
EXTT5=
EXTT6=
EXTT7=
EXTT8=
EXTT9=
EXTT10=
EXTT11=
PLAYORDER=
